#!OML:ASF E:\Style4\Style4.ASF
:FULLY-SPECIFIED
:DEGREES
3499
root 0.717153 17.3515 -1.12046 2.82105 -19.0864 4.44811
lowerback 14.4612 1.93758 -2.84969
upperback 8.56735 2.09945 -1.58387
thorax 0.903501 0.947744 -0.331166
lowerneck 3.1352 -3.91606 -7.14112
upperneck -2.00058 -5.35978 6.91695
head -0.780654 -2.72671 3.57458
rclavicle 2.23136e-014 2.78299e-014
rhumerus -8.89377 18.9307 -85.597
rradius 124.262
rwrist 23.7919
rhand 25.9941 -6.0781
rfingers 7.12502
rthumb 50.0722 -27.2628
lclavicle 2.23136e-014 2.78299e-014
lhumerus 4.03114 -16.4197 82.4406
lradius 113.119
lwrist -18.5504
lhand 20.4837 38.9318
lfingers 7.12502
lthumb 44.9855 62.4371
rfemur -29.9863 6.99934 11.6018
rtibia 44.7051
rfoot -18.0129 -9.14399
rtoes -17.4123
lfemur -22.5437 10.1599 -25.3469
ltibia 42.5797
lfoot -25.9461 14.6632
ltoes -9.74368
3500
root 0.728642 17.3108 -1.12987 2.54348 -19.3175 4.53504
lowerback 14.7128 1.8069 -3.13867
upperback 8.65168 1.88121 -1.54751
thorax 0.854957 0.825529 -0.107664
lowerneck 3.13478 -3.79685 -6.98999
upperneck -2.1051 -5.19121 6.88952
head -0.831792 -2.64306 3.53818
rclavicle 1.40143e-014 -3.29983e-014
rhumerus -7.97533 19.4796 -85.407
rradius 124.767
rwrist 23.6643
rhand 25.7089 -5.65029
rfingers 7.12502
rthumb 49.8112 -26.9716
lclavicle 1.40143e-014 -3.29983e-014
lhumerus 3.49476 -15.9047 82.2944
lradius 113.053
lwrist -18.7284
lhand 20.734 39.1917
lfingers 7.12502
lthumb 45.2182 62.6048
rfemur -30.2375 6.99738 11.5406
rtibia 45.4811
rfoot -18.2881 -8.96062
rtoes -17.0501
lfemur -22.6736 10.2127 -25.4372
ltibia 43.3352
lfoot -26.2632 14.8562
ltoes -10.5108
3501
root 0.737518 17.2619 -1.1384 2.21933 -19.5875 4.29686
lowerback 15.1139 1.66825 -3.22358
upperback 8.75646 1.67036 -1.36232
thorax 0.752131 0.710716 0.153924
lowerneck 3.20726 -3.65858 -6.93171
upperneck -2.24297 -5.00503 6.82015
head -0.90652 -2.55019 3.50777
rclavicle 5.889e-014 -2.40529e-014
rhumerus -6.94327 20.1306 -85.0957
rradius 125.265
rwrist 23.5565
rhand 25.6896 -5.37842
rfingers 7.12502
rthumb 49.7935 -26.7089
lclavicle 5.889e-014 -2.40529e-014
lhumerus 2.85222 -15.2354 82.3314
lradius 113.083
lwrist -18.9603
lhand 21.0807 39.3278
lfingers 7.12502
lthumb 45.5405 62.6113
rfemur -30.3636 7.14834 11.8552
rtibia 46.3182
rfoot -18.5846 -8.97891
rtoes -17.4132
lfemur -22.6846 10.4424 -25.1433
ltibia 44.1559
lfoot -26.3869 14.9919
ltoes -11.3835
3502
root 0.746975 17.2082 -1.14914 1.8774 -19.8768 3.89014
lowerback 15.6259 1.52805 -3.18138
upperback 8.87341 1.46924 -1.098
thorax 0.60704 0.603434 0.425722
lowerneck 3.40538 -3.50046 -6.92489
upperneck -2.4979 -4.79936 6.70376
head -1.04266 -2.44779 3.47695
rclavicle 1.50082e-014 -1.5704e-014
rhumerus -5.79401 20.8288 -84.7125
rradius 125.7
rwrist 23.4463
rhand 25.6393 -5.35723
rfingers 7.12502
rthumb 49.7475 -26.7116
lclavicle 1.50082e-014 -1.5704e-014
lhumerus 2.21209 -14.5298 82.4416
lradius 113.129
lwrist -19.2133
lhand 21.2795 39.3199
lfingers 7.12502
lthumb 45.7251 62.5281
rfemur -30.4506 7.37091 12.3624
rtibia 47.2074
rfoot -18.8431 -9.14462
rtoes -18.5931
lfemur -22.6639 10.7499 -24.6449
ltibia 45.0064
lfoot -26.6698 15.0627
ltoes -11.9502
3503
root 0.7595 17.1549 -1.15808 1.38435 -19.9918 4.2117
lowerback 16.0059 1.37593 -3.6815
upperback 9.0048 1.18586 -1.08169
thorax 0.551313 0.440806 0.760591
lowerneck 3.58208 -3.3309 -6.79511
upperneck -2.73748 -4.57205 6.59424
head -1.17385 -2.33544 3.42351
rclavicle -1.00038e-013 6.75868e-014
rhumerus -4.56695 21.4028 -84.4365
rradius 126.102
rwrist 23.3672
rhand 25.4952 -5.30119
rfingers 7.12502
rthumb 49.6154 -26.7236
lclavicle -1.00038e-013 6.75868e-014
lhumerus 1.63553 -13.931 82.3927
lradius 113.257
lwrist -19.269
lhand 21.4652 39.5088
lfingers 7.12502
lthumb 45.8975 62.6459
rfemur -30.6329 7.24399 12.0683
rtibia 48.1513
rfoot -19.156 -9.25437
rtoes -20.3804
lfemur -22.705 10.9018 -24.9497
ltibia 45.8245
lfoot -27.1547 15.0307
ltoes -11.8657
3504
root 0.766108 17.1014 -1.16838 0.812201 -19.9861 4.85125
lowerback 16.3285 1.23857 -4.47004
upperback 9.14205 0.881511 -1.19211
thorax 0.54058 0.259564 1.131
lowerneck 3.74025 -3.20229 -6.44784
upperneck -2.95842 -4.38973 6.41779
head -1.2971 -2.24661 3.30479
rclavicle -3.93345e-014 3.12589e-014
rhumerus -3.34587 21.8755 -84.2895
rradius 126.498
rwrist 23.4453
rhand 25.2551 -5.22703
rfingers 7.12502
rthumb 49.3953 -26.7616
lclavicle -3.93345e-014 3.12589e-014
lhumerus 1.09456 -13.3991 82.2551
lradius 113.439
lwrist -19.2129
lhand 21.7283 39.7564
lfingers 7.12502
lthumb 46.1416 62.7918
rfemur -30.8411 7.01196 11.4376
rtibia 49.1216
rfoot -19.5284 -9.26038
rtoes -21.2201
lfemur -22.7535 10.9849 -25.5969
ltibia 46.5934
lfoot -27.4322 15.187
ltoes -12.5054
